<svg width="41" height="41" viewBox="0 0 41 41" fill="none" xmlns="http://www.w3.org/2000/svg">
<path d="M14.7676 8.5H26.2324C29.7062 8.5 32.5 11.2108 32.5 14.4969V25.5031C32.5 28.7892 29.7062 31.5 26.2324 31.5H14.7676C11.2938 31.5 8.5 28.7892 8.5 25.5031V14.4969C8.5 11.2108 11.2938 8.5 14.7676 8.5ZM13.1641 20C13.1641 23.9139 16.4738 27.0625 20.5 27.0625C24.5262 27.0625 27.8359 23.9139 27.8359 20C27.8359 16.0861 24.5262 12.9375 20.5 12.9375C16.4738 12.9375 13.1641 16.0861 13.1641 20ZM24.9756 13.0437C24.9756 14.4077 26.1271 15.4844 27.4971 15.4844C28.8727 15.4844 30.0186 14.4069 30.0186 13.0437C30.0186 11.6798 28.8671 10.6031 27.4971 10.6031C26.1271 10.6031 24.9756 11.6798 24.9756 13.0437Z" stroke="white"/>
<path d="M15.6289 20C15.6289 17.4502 17.7974 15.3438 20.5 15.3438C23.2023 15.3438 25.3711 17.4546 25.3711 20C25.3711 22.5498 23.2026 24.6562 20.5 24.6562C17.7931 24.6562 15.6289 22.5457 15.6289 20Z" stroke="white"/>
<path d="M27.4971 12.514C27.1895 12.514 26.9404 12.7531 26.9404 13.0484C26.9404 13.3437 27.1895 13.5828 27.4971 13.5828C27.8047 13.5828 28.0537 13.3437 28.0537 13.0484C28.0537 12.7531 27.8047 12.514 27.4971 12.514Z" fill="white"/>
<circle cx="20.5" cy="20.5" r="20" stroke="white"/>
</svg>
