<svg width="41" height="41" viewBox="0 0 41 41" fill="none" xmlns="http://www.w3.org/2000/svg">
<circle cx="20.5" cy="20.5" r="20" stroke="white"/>
<path d="M33.7731 26.0886L33.7716 26.0869C33.1424 25.3351 32.4375 24.6775 31.705 23.9943C31.4163 23.725 31.1233 23.4517 30.829 23.1671C30.3636 22.718 30.0042 22.2648 29.9471 21.7114C29.8899 21.1562 30.1516 20.6432 30.5156 20.1171L30.5217 20.1083L30.5218 20.1084C30.9261 19.5499 31.3449 19.0024 31.7593 18.4617L31.8125 18.3922C32.2101 17.8736 32.6029 17.3612 32.9817 16.8427L32.9823 16.8418L33.0241 16.7849C33.778 15.7575 34.4651 14.8211 34.8288 13.6996L34.8301 13.6956C34.9488 13.3398 34.8935 13.2503 34.8922 13.2483C34.8865 13.2391 34.8181 13.1489 34.4408 13.0845L34.4311 13.0829L34.4214 13.0808C34.3415 13.064 34.2449 13.0621 34.0951 13.0621H29.2776H29.2693L29.2693 13.062C29.0499 13.0583 28.932 13.104 28.858 13.156C28.7805 13.2105 28.6951 13.3114 28.6125 13.5168C28.3319 14.2189 28.0359 14.9347 27.6865 15.6344M33.7731 26.0886L16.9242 18.6069C17.0342 17.2855 17.0542 15.974 16.8543 14.6526L17.349 14.5801C17.3489 14.5797 17.3489 14.5794 17.3488 14.579C17.2774 14.0926 17.096 13.6548 16.7777 13.3109C16.5388 13.0527 16.2402 12.8664 15.8954 12.7488C15.9582 12.6942 16.0179 12.6519 16.0791 12.6183C16.204 12.5498 16.3681 12.5 16.6344 12.5H21.59C21.8906 12.5659 21.9857 12.6482 22.0335 12.711C22.1005 12.7988 22.1579 12.9548 22.2111 13.3177V18.7674C22.2055 18.9906 22.2557 19.3516 22.3847 19.6923C22.5101 20.0236 22.763 20.4731 23.2546 20.6464L23.2628 20.6492L23.271 20.6518C23.6648 20.7755 24.0024 20.6723 24.2568 20.5101C24.4629 20.3787 24.6364 20.1927 24.751 20.0699C24.7622 20.0579 24.7728 20.0465 24.7829 20.0358C26.0338 18.7291 26.9197 17.1873 27.6865 15.6344M33.7731 26.0886C34.165 26.5527 34.5169 27.0127 34.7813 27.5162C34.9234 27.7903 34.9167 28.0485 34.8463 28.2215C34.78 28.3843 34.6662 28.4667 34.5339 28.4807H30.1272H30.1077L30.0884 28.4822C29.1272 28.5571 28.3452 28.1844 27.665 27.4959C27.247 27.0699 26.852 26.6341 26.4485 26.1889C26.2708 25.9928 26.0914 25.7948 25.9076 25.5951L25.9076 25.5951L25.9048 25.592C25.6528 25.3227 25.362 25.0441 25.0148 24.8158L25.0149 24.8157L25.0068 24.8106C24.6336 24.5752 24.2125 24.4467 23.7878 24.5473C23.3594 24.6487 23.0435 24.9554 22.8252 25.3432L22.8235 25.3461C22.4147 26.0838 22.3323 26.8836 22.2919 27.6016L22.2917 27.6054C22.2676 28.1002 22.1811 28.248 22.1176 28.3082C22.0461 28.3758 21.8753 28.457 21.3584 28.4812L21.3577 28.4813C19.1854 28.5865 17.1569 28.2601 15.2915 27.2044M33.7731 26.0886L15.2915 27.2044M27.6865 15.6344C27.6864 15.6347 27.6862 15.635 27.686 15.6353L27.2387 15.4119L27.6871 15.6333C27.6869 15.6336 27.6867 15.634 27.6865 15.6344ZM10.2678 12.6015C8.81857 12.5719 7.37934 12.5719 5.93012 12.6015C5.06058 12.6212 4.80072 13.0354 5.15053 13.8144C6.72969 17.2658 8.47876 20.6284 10.7775 23.6952C11.9569 25.2729 13.3062 26.6535 15.0452 27.6396L10.2678 12.6015ZM10.2678 12.6015C10.8575 12.6114 11.2473 12.9467 11.4672 13.489L10.2678 12.6015ZM15.2915 27.2044C13.6324 26.2636 12.332 24.9397 11.178 23.3958L11.1776 23.3953C8.91042 20.3706 7.17889 17.0457 5.60597 13.6081C5.47688 13.32 5.49997 13.2112 5.50527 13.1926C5.51986 13.1798 5.61139 13.1089 5.94096 13.1014C7.38316 13.072 8.81538 13.072 10.2576 13.1014L10.2594 13.1015C10.4555 13.1047 10.5944 13.1596 10.7012 13.2419C10.813 13.3278 10.9184 13.4663 11.0038 13.6769L11.0038 13.6769L11.0048 13.6794C11.7965 15.602 12.7738 17.4519 13.9998 19.1553L14 19.1556C14.3154 19.5932 14.6909 20.1071 15.232 20.4786L15.2347 20.4803C15.5471 20.6919 15.9313 20.8371 16.3286 20.7233C16.7287 20.6086 16.9764 20.2793 17.125 19.9256L15.2915 27.2044Z" stroke="white"/>
</svg>
